<?xml version="1.0" encoding="utf-8"?>
<!-- Generator: Adobe Illustrator 16.0.0, SVG Export Plug-In . SVG Version: 6.00 Build 0)  -->
<!DOCTYPE svg PUBLIC "-//W3C//DTD SVG 1.1//EN" "http://www.w3.org/Graphics/SVG/1.1/DTD/svg11.dtd">
<svg version="1.1" id="Layer_1" xmlns="http://www.w3.org/2000/svg" xmlns:xlink="http://www.w3.org/1999/xlink" x="0px" y="0px"
	 width="218.047px" height="150px" viewBox="0 0 218.047 150" enable-background="new 0 0 218.047 150" xml:space="preserve">
<path fill-rule="evenodd" clip-rule="evenodd" fill="#FDB913" d="M56.604,79.898c18.719,0,33.895-15.171,33.895-33.894
	c0-18.721-15.176-33.898-33.895-33.898c-18.721,0-33.896,15.178-33.896,33.898C22.707,64.727,37.883,79.898,56.604,79.898z
	 M82.775,46.886c0,0-12.072,4.019-15.139,16.527c0,0-7.833-7.43-17.711-5.498c0,0,8.59-3.285,16.326,0.896
	C66.252,58.811,69.563,49.912,82.775,46.886z M53.613,47.811c0,0,1.695-4.558,8.469-6.108c0,0-6.188,2.061-7.758,8.466
	c0,0-4.014-3.805-9.07-2.818C45.254,47.35,49.652,45.669,53.613,47.811z"/>
</svg>
