<?xml version="1.0" encoding="utf-8"?>
<!-- Generator: Adobe Illustrator 16.0.0, SVG Export Plug-In . SVG Version: 6.00 Build 0)  -->
<!DOCTYPE svg PUBLIC "-//W3C//DTD SVG 1.1//EN" "http://www.w3.org/Graphics/SVG/1.1/DTD/svg11.dtd">
<svg version="1.1" id="Layer_1" xmlns="http://www.w3.org/2000/svg" xmlns:xlink="http://www.w3.org/1999/xlink" x="0px" y="0px"
	 width="218.047px" height="150px" viewBox="0 0 218.047 150" enable-background="new 0 0 218.047 150" xml:space="preserve">
<path fill-rule="evenodd" clip-rule="evenodd" fill="#5F4F46" d="M49.926,57.915c9.878-1.932,17.711,5.498,17.711,5.498
	c3.066-12.508,15.139-16.527,15.139-16.527c-13.213,3.026-16.523,11.925-16.523,11.925C58.516,54.629,49.926,57.915,49.926,57.915z
	 M159.367,126.307c-13.41-33.338-2.473-71.386-13.506-98.257c-0.945-0.828-1.813-1.518-2.57-2.079
	c-0.904,1.434-2.076,3.58-3.254,6.504c11.842,31.604,4.514,63.3-2.609,90.146c-5.736-0.848-11.146-1.545-16.025-2.064
	l-10.824-14.543L129.1,82.451l-3.188-1.836l-21.01,21.656l-58.941,6.926v1.932l12.187-0.49l-8.97,12.961
	C29.41,127.563,13.844,134.094,0,142.334c21.877-6.01,46.144-9.477,82.167-5.883c44.981,4.486,87.335,25.08,135.88,4.703
	C203.02,135.639,180.725,130.303,159.367,126.307z M107.834,119.533c-21.305-0.65-39.072,0.563-54.374,3.258l11.626-12.432
	l40.186-1.611l12.488,11.445C114.035,119.846,110.686,119.619,107.834,119.533z M54.324,50.168c1.57-6.405,7.758-8.466,7.758-8.466
	c-6.773,1.55-8.469,6.108-8.469,6.108c-3.961-2.142-8.359-0.461-8.359-0.461C50.311,46.363,54.324,50.168,54.324,50.168z"/>
</svg>
