<?xml version="1.0" encoding="utf-8"?>
<!-- Generator: Adobe Illustrator 16.0.0, SVG Export Plug-In . SVG Version: 6.00 Build 0)  -->
<!DOCTYPE svg PUBLIC "-//W3C//DTD SVG 1.1//EN" "http://www.w3.org/Graphics/SVG/1.1/DTD/svg11.dtd">
<svg version="1.1" id="Layer_1" xmlns="http://www.w3.org/2000/svg" xmlns:xlink="http://www.w3.org/1999/xlink" x="0px" y="0px"
	 width="218.047px" height="150px" viewBox="0 0 218.047 150" enable-background="new 0 0 218.047 150" xml:space="preserve">
<path fill-rule="evenodd" clip-rule="evenodd" fill="#54B948" d="M182.787,49.237c0,0-9.934-32.169-29.754-35.038
	c6.621-10.974,21.131,1.034,21.131,1.034c-22.354-27.958-31.654-10.741-34.82-0.94C116.689-0.5,92.34,36.177,92.34,36.177
	c15.307-10.973,26.986-14.583,34.605-15.547c-21.863,14.498-19.352,55.18-19.352,55.18c5.416-16.921,11.902-28.487,17.832-36.333
	c-3.074,21.511,11.633,46.418,11.633,46.418c-5.879-35.992,2.492-53.988,6.232-59.925c6.391,4.719,20.152,18.288,28.699,51.669
	c0,0,3.488-28.745-7.967-47.22C169.545,34.46,175.92,40.426,182.787,49.237z"/>
</svg>
